<?xml version="1.0"?>
<!DOCTYPE svg PUBLIC "-//W3C//DTD SVG 1.1//EN" "http://www.w3.org/Graphics/SVG/1.1/DTD/svg11.dtd">
<svg width="408.0mm" height="408.0mm" viewBox="0 0 408.0 408.0" xmlns="http://www.w3.org/2000/svg" version="1.1">
<g id="Part__Part2DObjectPython001" transform="translate(204.000000,204.000000) scale(1,-1)">
<path id="Part__Part2DObjectPython001_w0000"  d="M -100.0 200.0 L -200.0 200.0 L 200.0 200.0 L 200.0 -200.0 L -200.0 -200.0 L -200.0 200.0 L -200.0 100.0 L -100.0 200.0 L -100.0 100.0 L -200.0 100.0 M -200.0 200.0 L -100.0 100.0 L 100.0 -100.0 L 100.0 -200.0 L 200.0 -200.0 L 200.0 -100.0 L 100.0 -100.0 L 200.0 -200.0 M 100.0 -200.0 L 200.0 -100.0 M 200.0 100.0 L 200.0 200.0 L 100.0 200.0 L 100.0 100.0 L 200.0 100.0 M 100.0 200.0 L 200.0 100.0 M -200.0 -200.0 L -100.0 -100.0 L -100.0 -200.0 L -200.0 -200.0 L -200.0 -100.0 L -100.0 -100.0 L 100.0 100.0 L 200.0 200.0 M -200.0 -100.0 L -100.0 -200.0 " stroke="#000000" stroke-width="0.7 px" style="stroke-width:0.7;stroke-miterlimit:4;stroke-dasharray:none;stroke-linecap:square;fill:none;fill-opacity:1;fill-rule: evenodd"/>
<circle cx="0.0" cy="0.0" r="50.0" stroke="#000000" stroke-width="0.7 px" style="stroke-width:0.7;stroke-miterlimit:4;stroke-dasharray:none;stroke-linecap:square;fill:none"/>
<title>b'Part__Part2DObjectPython001'</title>
</g>
</svg>